<?xml version="1.0" encoding="UTF-8"?>
<svg id="Layer_1" xmlns="http://www.w3.org/2000/svg" version="1.1" viewBox="0 0 32 32">
  <!-- Generator: Adobe Illustrator 29.1.0, SVG Export Plug-In . SVG Version: 2.1.0 Build 142)  -->
  <defs>
    <style>
      .st0 {
        fill: #fff;
      }

      .st1 {
        fill: #282828;
      }

      .st2 {
        fill: #d69929;
      }

      .st3 {
        fill: #b16286;
      }

      .st4 {
        fill: #d45e27;
      }

      .st5 {
        fill: #468588;
      }

      .st6 {
        fill: #cc2527;
      }
    </style>
  </defs>
  <g>
    <rect class="st6" width="32" height="6.4"/>
    <rect class="st2" y="6.4" width="32" height="6.4"/>
    <rect class="st3" y="12.8" width="32" height="6.4"/>
    <rect class="st5" y="19.2" width="32" height="6.4"/>
    <rect class="st4" y="25.6" width="32" height="6.4"/>
  </g>
  <g>
    <path class="st1" d="M15.52,7.91h-2.92v5.74h.66v-5.08h2.92c.83,0,1.5.19,2.02.55-.11-.17-.24-.33-.39-.47-.55-.5-1.32-.75-2.29-.75Z"/>
    <path class="st1" d="M22.63,6.84c.68.93,1.01,2.02,1.01,3.28,0,1.37-.38,2.52-1.13,3.43-.75.92-1.73,1.47-2.92,1.64v.07c.53.05,1.02.19,1.48.4.83-.27,1.53-.75,2.1-1.45.75-.92,1.13-2.06,1.13-3.43,0-1.26-.34-2.36-1.01-3.28-.27-.38-.6-.71-.97-1.03.1.12.21.24.31.37Z"/>
    <path class="st1" d="M13.26,18.22h3.12c.93,0,1.68.23,2.27.67-.11-.16-.23-.31-.38-.45-.62-.59-1.47-.88-2.55-.88h-3.12v6.54h.66v-5.88Z"/>
    <path class="st1" d="M24.29,18.95c-.36-.78-.86-1.42-1.48-1.94.32.38.6.8.82,1.28.39.84.58,1.78.58,2.82,0,1.39-.35,2.62-1.05,3.67-.7,1.05-1.67,1.87-2.92,2.45-1.25.59-2.7.88-4.36.88h-7.43v.66h8.1c1.66,0,3.11-.29,4.36-.88,1.25-.58,2.22-1.4,2.92-2.45.7-1.05,1.05-2.27,1.05-3.67,0-1.04-.19-1.98-.58-2.82Z"/>
  </g>
  <path class="st0" d="M7.79,28.11V3.89h7.8c1.61,0,3.02.26,4.23.78s2.15,1.24,2.82,2.17c.68.93,1.01,2.02,1.01,3.28,0,1.37-.38,2.52-1.13,3.43-.75.92-1.73,1.47-2.92,1.64v.07c.91.09,1.71.4,2.41.95.69.54,1.24,1.23,1.62,2.07s.58,1.78.58,2.82c0,1.39-.35,2.62-1.05,3.67-.7,1.05-1.67,1.87-2.92,2.45-1.25.59-2.7.88-4.36.88H7.79ZM12.6,13.64h2.92c.97,0,1.74-.26,2.29-.78s.83-1.22.83-2.11-.28-1.61-.83-2.11c-.55-.5-1.32-.75-2.29-.75h-2.92v5.74ZM12.6,24.1h3.12c1.08,0,1.93-.29,2.55-.86.62-.57.93-1.37.93-2.39s-.31-1.82-.93-2.41c-.62-.59-1.47-.88-2.55-.88h-3.12v6.54Z"/>
</svg>